<svg width="24" height="24" viewBox="0 0 24 24" fill="none" xmlns="http://www.w3.org/2000/svg">
<g filter="url(#filter0_d_1287_7126)">
<path d="M12 0C16.4183 0 20 3.58172 20 8C20 12.4183 16.4183 16 12 16C7.58172 16 4 12.4183 4 8C4 3.58172 7.58172 0 12 0ZM8.5 7.5C8.22386 7.5 8 7.72386 8 8C8 8.27614 8.22386 8.5 8.5 8.5H14.2929L12.1464 10.6464C11.9512 10.8417 11.9512 11.1583 12.1464 11.3536C12.3417 11.5488 12.6583 11.5488 12.8536 11.3536L15.8536 8.35355C16.0488 8.15829 16.0488 7.84171 15.8536 7.64645L12.8536 4.64645C12.6583 4.45118 12.3417 4.45118 12.1464 4.64645C11.9512 4.84171 11.9512 5.15829 12.1464 5.35355L14.2929 7.5H8.5Z" fill="white"/>
</g>
<defs>
<filter id="filter0_d_1287_7126" x="0" y="0" width="24" height="24" filterUnits="userSpaceOnUse" color-interpolation-filters="sRGB">
<feFlood flood-opacity="0" result="BackgroundImageFix"/>
<feColorMatrix in="SourceAlpha" type="matrix" values="0 0 0 0 0 0 0 0 0 0 0 0 0 0 0 0 0 0 127 0" result="hardAlpha"/>
<feOffset dy="4"/>
<feGaussianBlur stdDeviation="2"/>
<feComposite in2="hardAlpha" operator="out"/>
<feColorMatrix type="matrix" values="0 0 0 0 0 0 0 0 0 0 0 0 0 0 0 0 0 0 0.25 0"/>
<feBlend mode="normal" in2="BackgroundImageFix" result="effect1_dropShadow_1287_7126"/>
<feBlend mode="normal" in="SourceGraphic" in2="effect1_dropShadow_1287_7126" result="shape"/>
</filter>
</defs>
</svg>
